<svg width="62" height="50" viewBox="0 0 62 50" fill="none" xmlns="http://www.w3.org/2000/svg">
<path fill-rule="evenodd" clip-rule="evenodd" d="M48.1496 33.1408L57.7067 49.5276H38.2165L28.7795 32.9851L16.6481 12.1741C13.9365 7.31965 9.88828 0.0729891 9.88828 0.0729891H39.0517C42.964 -0.0312509 47.1072 -0.156602 49.9494 0.731417C55.4649 2.45336 59.6187 6.8697 61.1361 12.5884C63.9479 23.1945 56.2065 31.3529 48.1496 33.1408ZM47.7182 16.2473C47.2643 14.342 46.0662 13.1347 43.9814 12.5092C43.0102 12.2176 39.2681 12.1833 37.2203 12.2084C33.3396 12.2559 27.8162 12.2677 27.526 12.1622C27.522 12.1596 27.518 12.1569 27.5128 12.1543C27.5141 12.1569 27.5194 12.1596 27.526 12.1622C29.2756 13.1861 32.3725 14.8408 32.3725 14.8408C32.3725 14.8408 44.492 29.1546 44.393 29.1625C44.4511 29.2048 43.1144 22.8963 43.1144 22.8963C43.1144 22.8963 48.9281 21.6388 47.7182 16.2473ZM0 49.5276C0 49.5276 4.72907 41.3124 9.47396 33.0709L28.7795 32.9851L19.481 49.5276H0Z" fill="#C80000"/>
</svg>
